# This file uses centimeters as units for non-parametric coordinates.

mtllib Avatarlowpoly.mtl
g default
v 0.000000 6.569234 2.171463
v -2.171463 6.569234 0.000000
v 0.000000 6.569234 -2.171463
v 2.171463 6.569234 0.000000
v 0.000000 0.538300 0.000000
vt 0.537794 0.684143
vt 0.397152 0.243250
vt 0.838045 0.102608
vt 0.978686 0.543501
vt 0.509305 0.958729
vt 0.046524 0.958729
vt 0.277915 0.020884
vt 0.509306 0.958729
vt 0.046524 0.958729
vt 0.277915 0.020884
vt 0.509305 0.958729
vt 0.046524 0.958729
vt 0.277915 0.020884
vt 0.509305 0.958729
vt 0.046524 0.958729
vt 0.277915 0.020884
vn 0.000000 1.000000 0.000000
vn 0.000000 1.000000 0.000000
vn 0.000000 1.000000 0.000000
vn 0.000000 1.000000 0.000000
vn -0.685247 -0.246726 0.685247
vn -0.685247 -0.246726 0.685247
vn -0.685247 -0.246726 0.685247
vn -0.685247 -0.246726 -0.685247
vn -0.685247 -0.246726 -0.685247
vn -0.685247 -0.246726 -0.685247
vn 0.685247 -0.246726 -0.685247
vn 0.685247 -0.246726 -0.685247
vn 0.685247 -0.246726 -0.685247
vn 0.685247 -0.246726 0.685247
vn 0.685247 -0.246726 0.685247
vn 0.685247 -0.246726 0.685247
s off
g initialShadingGroup AVATAR
f 1/1/1 4/2/2 3/3/3 2/4/4
f 1/5/5 2/6/6 5/7/7
f 2/8/8 3/9/9 5/10/10
f 3/11/11 4/12/12 5/13/13
f 4/14/14 1/15/15 5/16/16
