# This file uses centimeters as units for non-parametric coordinates.

mtllib decoybase.mtl
g default
v 0.623490 0.158545 -0.777222
v -0.222521 0.158545 -0.970318
v -0.900969 0.158545 -0.429274
v -0.900969 0.158545 0.438493
v -0.222521 0.158545 0.979538
v 0.623490 0.158545 0.786441
v 1.000000 0.158545 0.004610
v 0.623490 0.788012 -0.777222
v -0.222521 0.788012 -0.970318
v -0.900969 0.788012 -0.429274
v -0.900969 0.788012 0.438493
v -0.222521 0.788012 0.979538
v 0.623490 0.788012 0.786441
v 1.000000 0.788012 0.004610
v -0.000000 0.158545 0.004610
v 0.000000 0.788012 0.004610
v 0.623490 0.704705 0.786441
v -0.222521 0.704705 0.979538
v -0.900969 0.704705 0.438493
v -0.900969 0.704705 -0.429274
v -0.222521 0.704705 -0.970318
v 0.623490 0.704705 -0.777222
v 1.000000 0.704705 0.004610
v 0.637374 0.703698 0.805354
v -0.229101 0.703698 1.003121
v 0.637374 0.789020 0.805354
v -0.229101 0.789020 1.003121
v -0.923961 0.703698 0.448989
v -0.923961 0.789020 0.448989
v -0.923961 0.703698 -0.439770
v -0.923961 0.789020 -0.439770
v -0.229101 0.703698 -0.993901
v -0.229101 0.789020 -0.993901
v 0.637374 0.703698 -0.796134
v 0.637374 0.789020 -0.796134
v 1.022992 0.703698 0.004610
v 1.022992 0.789020 0.004610
v 1.741971 1.442078 0.919320
v 1.800202 1.442078 0.798403
v 1.744116 1.442240 0.922244
v 1.803757 1.442240 0.798403
v 0.377137 1.557783 1.834182
v 0.501040 1.557783 1.805901
v 0.376173 1.557931 1.837635
v 0.503073 1.557931 1.808671
v -1.189069 1.545793 1.433857
v -1.099506 1.545793 1.505281
v -1.192104 1.545927 1.435242
v -1.100375 1.545927 1.508394
v 1.746881 1.408670 -0.716075
v 1.659908 1.408670 -0.896677
v 1.752192 1.408903 -0.716075
v 1.663115 1.408903 -0.901046
v 0.547660 1.382110 -1.782760
v 0.333394 1.382110 -1.831660
v 0.551177 1.382358 -1.787551
v 0.331728 1.382358 -1.837635
v -1.089435 1.489320 -1.496256
v -1.201522 1.489320 -1.406870
v -1.090523 1.489487 -1.500152
v -1.205321 1.489487 -1.408604
v -1.841299 1.434071 -0.087681
v -1.841299 1.434071 0.107267
v -1.846465 1.434297 -0.090039
v -1.846465 1.434297 0.109625
vt 0.682288 0.647369
vt 0.652520 0.687226
vt 0.656695 0.628648
vt 0.627304 0.668000
vt 0.629139 0.718530
vt 0.603736 0.699557
vt 0.674888 0.775525
vt 0.715356 0.754431
vt 0.689544 0.803642
vt 0.734217 0.780356
vt 0.751901 0.734479
vt 0.762070 0.765837
vt 0.764300 0.683856
vt 0.782807 0.741645
vt 0.795534 0.694207
vt 0.733720 0.646604
vt 0.787917 0.662653
vt 0.759118 0.627571
vt 0.705812 0.612607
vt 0.730319 0.592489
vt 0.709311 0.698597
vt 0.665092 0.736214
vt 0.539611 0.162665
vt 0.529558 0.206555
vt 0.489016 0.174173
vt 0.488976 0.226061
vt 0.448424 0.206494
vt 0.438438 0.162589
vt 0.466538 0.127407
vt 0.511564 0.127441
vt 0.357659 0.112068
vt 0.385719 0.076943
vt 0.361118 0.114832
vt 0.389178 0.079706
vt 0.335157 0.140237
vt 0.338615 0.143000
vt 0.451673 0.304625
vt 0.410140 0.284585
vt 0.453597 0.300638
vt 0.412064 0.280597
vt 0.477569 0.317120
vt 0.479493 0.313132
vt 0.620484 0.192479
vt 0.610438 0.236298
vt 0.616169 0.191490
vt 0.606123 0.235309
vt 0.509789 0.013186
vt 0.551232 0.013188
vt 0.510959 0.017602
vt 0.551231 0.017604
vt 0.468347 0.013184
vt 0.467177 0.017600
vt 0.206986 0.849195
vt 0.207792 0.850403
vt 0.155650 0.859860
vt 0.155215 0.861326
vt 0.416135 0.110142
vt 0.412020 0.115295
vt 0.416025 0.110018
vt 0.411863 0.115229
vt 0.115613 0.824830
vt 0.114209 0.825449
vt 0.394094 0.191718
vt 0.395412 0.197514
vt 0.393929 0.191688
vt 0.395279 0.197624
vt 0.117023 0.770484
vt 0.115654 0.769787
vt 0.442700 0.257906
vt 0.451810 0.262302
vt 0.442473 0.258094
vt 0.451804 0.262597
vt 0.158819 0.737744
vt 0.158461 0.736256
vt 0.534589 0.258927
vt 0.534747 0.259066
vt 0.527884 0.262150
vt 0.527880 0.262366
vt 0.209527 0.751265
vt 0.210395 0.750104
vt 0.584892 0.188882
vt 0.585179 0.188898
vt 0.582346 0.199998
vt 0.582603 0.200139
vt 0.230963 0.800866
vt 0.232350 0.800905
vt 0.562084 0.108788
vt 0.562204 0.108540
vt 0.568563 0.116925
vt 0.568839 0.116874
vt 0.492512 0.072147
vt 0.485548 0.072142
vt 0.492592 0.071980
vt 0.485459 0.071977
vt 0.465967 0.126332
vt 0.512082 0.126367
vt 0.437187 0.162365
vt 0.447415 0.207332
vt 0.342242 0.183960
vt 0.352471 0.228928
vt 0.619531 0.099761
vt 0.590805 0.063684
vt 0.540808 0.162443
vt 0.530512 0.207395
vt 0.530880 0.314627
vt 0.572446 0.294655
vt 0.488948 0.227372
vn 0.222521 0.000000 -0.974928
vn 0.222521 0.000000 -0.974928
vn 0.222521 0.000000 -0.974928
vn 0.222521 0.000000 -0.974928
vn 0.222521 0.000000 -0.974928
vn 0.222521 0.000000 -0.974928
vn -0.623490 0.000000 -0.781832
vn -0.623490 0.000000 -0.781832
vn -0.623490 0.000000 -0.781832
vn -0.623490 0.000000 -0.781832
vn -0.623490 0.000000 -0.781832
vn -0.623490 0.000000 -0.781832
vn -1.000000 0.000000 -0.000000
vn -1.000000 0.000000 -0.000000
vn -1.000000 0.000000 -0.000000
vn -1.000000 0.000000 -0.000000
vn -1.000000 0.000000 -0.000000
vn -1.000000 0.000000 -0.000000
vn -0.623490 0.000000 0.781832
vn -0.623490 0.000000 0.781832
vn -0.623490 0.000000 0.781832
vn -0.623490 0.000000 0.781832
vn -0.623490 0.000000 0.781832
vn -0.623490 0.000000 0.781832
vn 0.222521 0.000000 0.974928
vn 0.222521 0.000000 0.974928
vn 0.222521 0.000000 0.974928
vn 0.222521 0.000000 0.974928
vn 0.222521 0.000000 0.974928
vn 0.222521 0.000000 0.974928
vn 0.900969 0.000000 0.433884
vn 0.900969 0.000000 0.433884
vn 0.900969 0.000000 0.433884
vn 0.900969 0.000000 0.433884
vn 0.900969 0.000000 0.433884
vn 0.900969 0.000000 0.433884
vn 0.900969 0.000000 -0.433884
vn 0.900969 0.000000 -0.433884
vn 0.900969 0.000000 -0.433884
vn 0.900969 0.000000 -0.433884
vn 0.900969 0.000000 -0.433884
vn 0.900969 0.000000 -0.433884
vn 0.000000 -1.000000 -0.000000
vn 0.000000 -1.000000 0.000000
vn 0.000000 -1.000000 -0.000000
vn 0.000000 -1.000000 -0.000000
vn 0.000000 -1.000000 -0.000000
vn 0.000000 -1.000000 -0.000000
vn 0.000000 -1.000000 0.000000
vn 0.000000 -1.000000 -0.000000
vn 0.000000 -1.000000 -0.000000
vn 0.000000 -1.000000 0.000000
vn 0.000000 -1.000000 0.000000
vn 0.000000 -1.000000 -0.000000
vn 0.000000 -1.000000 0.000000
vn 0.000000 -1.000000 0.000000
vn 0.000000 -1.000000 -0.000000
vn 0.000000 -1.000000 0.000000
vn 0.000000 -1.000000 0.000000
vn 0.000000 -1.000000 -0.000000
vn 0.000000 -1.000000 0.000000
vn 0.000000 -1.000000 0.000000
vn 0.000000 -1.000000 -0.000000
vn 0.000000 1.000000 -0.000000
vn 0.000000 1.000000 -0.000000
vn 0.000000 1.000000 0.000000
vn 0.000000 1.000000 -0.000000
vn 0.000000 1.000000 0.000000
vn 0.000000 1.000000 0.000000
vn 0.000000 1.000000 0.000000
vn 0.000000 1.000000 0.000000
vn 0.000000 1.000000 0.000000
vn 0.000000 1.000000 0.000000
vn 0.000000 1.000000 0.000000
vn 0.000000 1.000000 0.000000
vn 0.000000 1.000000 0.000000
vn 0.000000 1.000000 0.000000
vn 0.000000 1.000000 0.000000
vn 0.000000 1.000000 0.000000
vn 0.000000 1.000000 0.000000
vn 0.000000 1.000000 0.000000
vn 0.000000 1.000000 0.000000
vn 0.000000 1.000000 -0.000000
vn 0.000000 1.000000 0.000000
vn 0.222521 0.000000 0.974928
vn 0.222521 -0.000000 0.974928
vn 0.150998 -0.734526 0.661567
vn 0.150998 -0.734526 0.661567
vn 0.222521 -0.000000 0.974928
vn 0.151359 -0.733024 0.663148
vn -0.623490 0.000000 0.781832
vn -0.623490 0.000000 0.781831
vn -0.422461 -0.735454 0.529749
vn -0.422461 -0.735454 0.529749
vn -0.623490 0.000000 0.781831
vn -0.423539 -0.733858 0.531101
vn -1.000000 0.000000 -0.000000
vn -1.000000 0.000000 -0.000000
vn -0.631254 -0.775576 -0.000000
vn -0.631254 -0.775576 -0.000000
vn -1.000000 0.000000 -0.000000
vn -0.636318 -0.771427 -0.000000
vn -0.623490 0.000000 -0.781831
vn -0.623489 0.000000 -0.781832
vn -0.409912 -0.753500 -0.514013
vn -0.409912 -0.753500 -0.514013
vn -0.623489 0.000000 -0.781832
vn -0.408038 -0.756112 -0.511664
vn 0.222521 0.000000 -0.974928
vn 0.222521 0.000000 -0.974928
vn 0.133159 -0.801189 -0.583409
vn 0.133159 -0.801189 -0.583409
vn 0.222521 0.000000 -0.974928
vn 0.132200 -0.804391 -0.579204
vn 0.900969 0.000000 -0.433883
vn 0.900969 0.000000 -0.433884
vn 0.544005 -0.797136 -0.261979
vn 0.544005 -0.797136 -0.261979
vn 0.900969 0.000000 -0.433884
vn 0.539498 -0.800900 -0.259809
vn 0.900969 0.000000 0.433884
vn 0.900969 0.000000 0.433883
vn 0.528179 -0.810141 0.254358
vn 0.528179 -0.810141 0.254358
vn 0.900969 0.000000 0.433883
vn 0.531562 -0.807411 0.255987
vn -0.010403 -0.998906 -0.045583
vn -0.010403 -0.998906 -0.045583
vn -0.010403 -0.998907 -0.045581
vn -0.010403 -0.998907 -0.045581
vn -0.010403 -0.998906 -0.045583
vn -0.010403 -0.998906 -0.045581
vn -0.010430 0.998901 -0.045685
vn -0.010432 0.998900 -0.045712
vn -0.010430 0.998901 -0.045685
vn -0.010430 0.998901 -0.045685
vn -0.010432 0.998900 -0.045712
vn -0.010432 0.998900 -0.045713
vn 0.027841 -0.999002 -0.034917
vn 0.027841 -0.999002 -0.034917
vn 0.027841 -0.999003 -0.034910
vn 0.027841 -0.999003 -0.034910
vn 0.027841 -0.999002 -0.034917
vn 0.027841 -0.999003 -0.034910
vn 0.027921 0.998998 -0.034983
vn 0.027920 0.998996 -0.035046
vn 0.027921 0.998998 -0.034984
vn 0.027921 0.998998 -0.034984
vn 0.027920 0.998996 -0.035046
vn 0.027920 0.998996 -0.035046
vn 0.043780 -0.999041 0.000000
vn 0.043780 -0.999041 -0.000000
vn 0.043780 -0.999041 0.000000
vn 0.043780 -0.999041 0.000000
vn 0.043780 -0.999041 -0.000000
vn 0.043780 -0.999041 -0.000000
vn 0.043780 0.999041 0.000000
vn 0.043782 0.999041 0.000000
vn 0.043780 0.999041 0.000000
vn 0.043780 0.999041 0.000000
vn 0.043782 0.999041 0.000000
vn 0.043782 0.999041 0.000000
vn 0.027841 -0.999002 0.034913
vn 0.027842 -0.999002 0.034912
vn 0.027841 -0.999002 0.034913
vn 0.027841 -0.999002 0.034913
vn 0.027842 -0.999002 0.034912
vn 0.027842 -0.999002 0.034912
vn 0.027856 0.999000 0.034968
vn 0.027856 0.999000 0.034965
vn 0.027853 0.999004 0.034863
vn 0.027853 0.999004 0.034863
vn 0.027856 0.999000 0.034965
vn 0.027853 0.999004 0.034861
vn -0.010403 -0.998906 0.045581
vn -0.010403 -0.998907 0.045577
vn -0.010403 -0.998906 0.045581
vn -0.010403 -0.998906 0.045581
vn -0.010403 -0.998907 0.045577
vn -0.010403 -0.998907 0.045577
vn -0.010116 0.998966 0.044314
vn -0.010116 0.998966 0.044314
vn -0.010115 0.998965 0.044340
vn -0.010115 0.998965 0.044340
vn -0.010116 0.998966 0.044314
vn -0.010115 0.998965 0.044340
vn -0.043770 -0.998819 0.021078
vn -0.043770 -0.998819 0.021077
vn -0.043770 -0.998819 0.021078
vn -0.043770 -0.998819 0.021078
vn -0.043770 -0.998819 0.021077
vn -0.043770 -0.998819 0.021077
vn -0.043760 0.998820 0.021087
vn -0.043761 0.998820 0.021086
vn -0.043765 0.998820 0.021055
vn -0.043765 0.998820 0.021055
vn -0.043761 0.998820 0.021086
vn -0.043765 0.998820 0.021055
vn -0.043770 -0.998819 -0.021080
vn -0.043770 -0.998819 -0.021080
vn -0.043770 -0.998819 -0.021079
vn -0.043770 -0.998819 -0.021079
vn -0.043770 -0.998819 -0.021080
vn -0.043770 -0.998819 -0.021079
vn -0.045382 0.998731 -0.021849
vn -0.045396 0.998729 -0.021879
vn -0.045382 0.998731 -0.021850
vn -0.045382 0.998731 -0.021850
vn -0.045396 0.998729 -0.021879
vn -0.045396 0.998729 -0.021879
vn -0.471387 0.852210 -0.227008
vn -0.471387 0.852210 -0.227008
vn -0.471387 0.852210 -0.227008
vn -0.471387 0.852210 -0.227008
vn -0.471387 0.852210 -0.227008
vn -0.471387 0.852210 -0.227007
vn -0.505552 0.797751 0.328649
vn -0.505552 0.797751 0.328648
vn -0.505740 0.798341 0.326923
vn -0.505740 0.798341 0.326923
vn -0.505552 0.797751 0.328648
vn -0.505748 0.798366 0.326850
vn 0.528179 -0.810141 0.254358
vn 0.531562 -0.807411 0.255987
vn 0.476624 -0.848613 0.229531
vn 0.476624 -0.848613 0.229531
vn 0.531562 -0.807411 0.255987
vn 0.476621 -0.848615 0.229534
vn -0.034537 0.788107 -0.614569
vn -0.035798 0.788694 -0.613743
vn -0.034537 0.788107 -0.614568
vn -0.034537 0.788107 -0.614568
vn -0.035798 0.788694 -0.613743
vn -0.035848 0.788717 -0.613710
vn -0.138617 0.782269 -0.607323
vn -0.138618 0.782268 -0.607323
vn -0.138618 0.782268 -0.607323
vn -0.138618 0.782268 -0.607323
vn -0.138618 0.782268 -0.607323
vn -0.138621 0.782268 -0.607323
vn -0.643622 0.735676 -0.211024
vn -0.643622 0.735676 -0.211024
vn -0.643567 0.735708 -0.211082
vn -0.643567 0.735708 -0.211082
vn -0.643622 0.735676 -0.211024
vn -0.643564 0.735710 -0.211085
vn 0.150998 -0.734526 0.661567
vn 0.151359 -0.733024 0.663148
vn 0.140148 -0.776740 0.614030
vn 0.140148 -0.776740 0.614030
vn 0.151359 -0.733024 0.663148
vn 0.140147 -0.776740 0.614030
vn 0.566135 0.689119 -0.452335
vn 0.566160 0.689080 -0.452362
vn 0.566135 0.689119 -0.452335
vn 0.566135 0.689119 -0.452335
vn 0.566160 0.689080 -0.452362
vn 0.566161 0.689079 -0.452363
vn 0.386843 0.784246 -0.485089
vn 0.386844 0.784247 -0.485087
vn 0.386844 0.784246 -0.485087
vn 0.386844 0.784247 -0.485087
vn 0.386844 0.784247 -0.485087
vn 0.386844 0.784246 -0.485087
vn -0.256041 0.731983 -0.631383
vn -0.256046 0.731981 -0.631383
vn -0.256141 0.731951 -0.631379
vn -0.256141 0.731951 -0.631379
vn -0.256141 0.731951 -0.631379
vn -0.256046 0.731981 -0.631383
vn -0.391471 -0.778316 0.490892
vn -0.391472 -0.778316 0.490891
vn -0.423539 -0.733858 0.531101
vn -0.422461 -0.735454 0.529749
vn -0.423539 -0.733858 0.531101
vn -0.391472 -0.778316 0.490891
vn 0.699738 0.694953 0.165551
vn 0.699740 0.694949 0.165559
vn 0.699738 0.694953 0.165551
vn 0.699740 0.694949 0.165559
vn 0.699740 0.694949 0.165559
vn 0.699738 0.694953 0.165551
vn -0.480097 0.846199 0.231203
vn -0.480097 0.846199 0.231203
vn -0.480097 0.846198 0.231203
vn -0.480097 0.846198 0.231203
vn -0.480097 0.846199 0.231203
vn -0.480097 0.846199 0.231203
vn -0.033935 0.774421 0.631760
vn -0.033935 0.774421 0.631760
vn -0.033930 0.774408 0.631776
vn -0.033930 0.774408 0.631776
vn -0.033935 0.774421 0.631760
vn -0.033929 0.774408 0.631776
vn 0.539498 -0.800900 -0.259809
vn 0.485275 -0.842552 -0.233696
vn 0.544005 -0.797136 -0.261979
vn 0.544005 -0.797136 -0.261979
vn 0.485275 -0.842552 -0.233696
vn 0.485274 -0.842553 -0.233697
vn -0.512303 0.791217 -0.333950
vn -0.512336 0.791222 -0.333884
vn -0.512303 0.791217 -0.333950
vn -0.512303 0.791217 -0.333950
vn -0.512336 0.791222 -0.333884
vn -0.512338 0.791223 -0.333882
vn -0.116795 0.851182 0.511710
vn -0.116794 0.851182 0.511710
vn -0.116792 0.851183 0.511710
vn -0.116792 0.851183 0.511710
vn -0.116794 0.851182 0.511710
vn -0.116784 0.851185 0.511709
vn 0.504362 0.759554 0.410728
vn 0.504362 0.759554 0.410727
vn 0.505478 0.759030 0.410324
vn 0.505478 0.759030 0.410324
vn 0.504362 0.759554 0.410727
vn 0.505507 0.759016 0.410314
vn 0.132200 -0.804391 -0.579204
vn 0.118109 -0.847505 -0.517481
vn 0.133159 -0.801189 -0.583409
vn 0.133159 -0.801189 -0.583409
vn 0.118109 -0.847505 -0.517481
vn 0.118102 -0.847506 -0.517480
vn -0.562806 0.804125 0.191398
vn -0.563633 0.803739 0.190583
vn -0.562806 0.804124 0.191398
vn -0.562806 0.804124 0.191398
vn -0.563633 0.803739 0.190583
vn -0.563658 0.803727 0.190558
vn 0.369871 0.805036 0.463803
vn 0.369871 0.805036 0.463803
vn 0.369871 0.805035 0.463803
vn 0.369871 0.805035 0.463803
vn 0.369871 0.805036 0.463803
vn 0.369872 0.805035 0.463804
vn 0.677268 0.718507 -0.158292
vn 0.677268 0.718507 -0.158292
vn 0.677298 0.718486 -0.158259
vn 0.677298 0.718486 -0.158259
vn 0.677268 0.718507 -0.158292
vn 0.677299 0.718485 -0.158257
vn -0.408038 -0.756112 -0.511664
vn -0.374367 -0.799671 -0.469442
vn -0.409912 -0.753500 -0.514013
vn -0.409912 -0.753500 -0.514013
vn -0.374367 -0.799671 -0.469442
vn -0.374366 -0.799670 -0.469444
vn -0.247359 0.749670 0.613848
vn -0.247295 0.749712 0.613822
vn -0.247359 0.749670 0.613848
vn -0.247359 0.749670 0.613848
vn -0.247295 0.749712 0.613822
vn -0.247292 0.749714 0.613821
vn 0.566280 0.824213 0.000000
vn 0.566280 0.824213 0.000000
vn 0.566280 0.824213 0.000000
vn 0.566280 0.824213 0.000000
vn 0.566280 0.824213 0.000000
vn 0.566279 0.824214 0.000000
vn 0.301547 0.750100 -0.588574
vn 0.301547 0.750100 -0.588574
vn 0.301620 0.750127 -0.588502
vn 0.301620 0.750127 -0.588502
vn 0.301547 0.750100 -0.588574
vn 0.301622 0.750128 -0.588500
vn -0.631254 -0.775576 -0.000000
vn -0.636318 -0.771427 -0.000000
vn -0.573179 -0.819430 -0.000000
vn -0.573179 -0.819430 -0.000000
vn -0.636318 -0.771427 -0.000000
vn -0.573179 -0.819430 0.000000
vn 0.303440 0.745740 0.593124
vn 0.303427 0.745734 0.593138
vn 0.303440 0.745740 0.593124
vn 0.303440 0.745740 0.593124
vn 0.303427 0.745734 0.593138
vn 0.303426 0.745734 0.593138
s off
g polySurface1 pCylinder4
usemtl blinn2SG
f 1/1/1 2/2/2 22/3/3
f 22/3/4 2/2/5 21/4/6
f 2/2/7 3/5/8 21/4/9
f 21/4/10 3/5/11 20/6/12
f 3/7/13 4/8/14 20/9/15
f 20/9/16 4/8/17 19/10/18
f 4/8/19 5/11/20 19/10/21
f 19/10/22 5/11/23 18/12/24
f 5/11/25 6/13/26 18/14/27
f 18/14/28 6/13/29 17/15/30
f 6/13/31 7/16/32 17/17/33
f 17/17/34 7/16/35 23/18/36
f 7/16/37 1/19/38 23/18/39
f 23/18/40 1/19/41 22/20/42
f 2/2/43 1/1/44 15/21/45
f 3/22/46 2/2/47 15/21/48
f 4/8/49 3/22/50 15/21/51
f 5/11/52 4/8/53 15/21/54
f 6/13/55 5/11/56 15/21/57
f 7/16/58 6/13/59 15/21/60
f 1/1/61 7/16/62 15/21/63
f 8/23/64 9/24/65 16/25/66
f 9/24/67 10/26/68 16/25/69
f 10/26/70 11/27/71 16/25/72
f 11/27/73 12/28/74 16/25/75
f 12/28/76 13/29/77 16/25/78
f 13/29/79 14/30/80 16/25/81
f 14/30/82 8/23/83 16/25/84
f 25/31/85 24/32/86 27/33/87
f 27/33/88 24/32/89 26/34/90
f 28/35/91 25/31/92 29/36/93
f 29/36/94 25/31/95 27/33/96
f 30/37/97 28/38/98 31/39/99
f 31/39/100 28/38/101 29/40/102
f 32/41/103 30/37/104 33/42/105
f 33/42/106 30/37/107 31/39/108
f 34/43/109 32/44/110 35/45/111
f 35/45/112 32/44/113 33/46/114
f 36/47/115 34/48/116 37/49/117
f 37/49/118 34/48/119 35/50/120
f 24/51/121 36/47/122 26/52/123
f 26/52/124 36/47/125 37/49/126
f 17/53/127 24/54/128 18/55/129
f 18/55/130 24/54/131 25/56/132
f 43/57/133 42/58/134 45/59/135
f 45/59/136 42/58/137 44/60/138
f 18/55/139 25/56/140 19/61/141
f 19/61/142 25/56/143 28/62/144
f 47/63/145 46/64/146 49/65/147
f 49/65/148 46/64/149 48/66/150
f 20/67/151 19/61/152 30/68/153
f 30/68/154 19/61/155 28/62/156
f 63/69/157 62/70/158 65/71/159
f 65/71/160 62/70/161 64/72/162
f 21/73/163 20/67/164 32/74/165
f 32/74/166 20/67/167 30/68/168
f 58/75/169 60/76/170 59/77/171
f 59/77/172 60/76/173 61/78/174
f 22/79/175 21/73/176 34/80/177
f 34/80/178 21/73/179 32/74/180
f 54/81/181 56/82/182 55/83/183
f 55/83/184 56/82/185 57/84/186
f 23/85/187 22/79/188 36/86/189
f 36/86/190 22/79/191 34/80/192
f 50/87/193 52/88/194 51/89/195
f 51/89/196 52/88/197 53/90/198
f 23/85/199 36/86/200 17/53/201
f 17/53/202 36/86/203 24/54/204
f 39/91/205 38/92/206 41/93/207
f 41/93/208 38/92/209 40/94/210
f 14/30/211 13/29/212 39/91/213
f 39/91/214 13/29/215 38/92/216
f 13/29/217 26/95/218 38/92/219
f 38/92/220 26/95/221 40/94/222
f 26/52/223 37/49/224 40/94/225
f 40/94/226 37/49/227 41/93/228
f 14/30/229 39/91/230 37/96/231
f 37/96/232 39/91/233 41/93/234
f 12/28/235 42/58/236 13/29/237
f 13/29/238 42/58/239 43/57/240
f 12/28/241 27/97/242 42/58/243
f 42/58/244 27/97/245 44/60/246
f 27/33/247 26/34/248 44/60/249
f 44/60/250 26/34/251 45/59/252
f 13/29/253 43/57/254 26/95/255
f 26/95/256 43/57/257 45/59/258
f 47/63/259 12/28/260 46/64/261
f 12/28/262 11/27/263 46/64/264
f 48/66/265 46/64/266 29/98/267
f 11/27/268 29/98/269 46/64/270
f 49/65/271 48/66/272 27/99/273
f 29/100/274 27/99/275 48/66/276
f 49/65/277 27/97/278 47/63/279
f 27/97/280 12/28/281 47/63/282
f 8/23/283 14/30/284 51/89/285
f 51/89/286 14/30/287 50/87/288
f 14/30/289 37/96/290 50/87/291
f 50/87/292 37/96/293 52/88/294
f 35/101/295 53/90/296 37/102/297
f 37/102/298 53/90/299 52/88/300
f 8/23/301 51/89/302 35/103/303
f 35/103/304 51/89/305 53/90/306
f 9/24/307 8/23/308 55/83/309
f 55/83/310 8/23/311 54/81/312
f 8/23/313 35/103/314 54/81/315
f 54/81/316 35/103/317 56/82/318
f 33/46/319 57/84/320 35/45/321
f 35/45/322 57/84/323 56/82/324
f 9/24/325 55/83/326 33/104/327
f 33/104/328 55/83/329 57/84/330
f 10/26/331 9/24/332 59/77/333
f 59/77/334 9/24/335 58/75/336
f 9/24/337 33/104/338 58/75/339
f 58/75/340 33/104/341 60/76/342
f 31/105/343 61/78/344 33/106/345
f 33/106/346 61/78/347 60/76/348
f 10/26/349 59/77/350 31/107/351
f 31/107/352 59/77/353 61/78/354
f 10/26/355 62/70/356 11/27/357
f 11/27/358 62/70/359 63/69/360
f 10/26/361 31/107/362 62/70/363
f 62/70/364 31/107/365 64/72/366
f 31/39/367 29/40/368 64/72/369
f 64/72/370 29/40/371 65/71/372
f 11/27/373 63/69/374 29/98/375
f 29/98/376 63/69/377 65/71/378
