# This file uses meters as units for non-parametric coordinates.

mtllib canyon1.mtl
g default
v -718.336182 -122.921989 300.006378
v -529.083191 -122.921989 285.193268
v -534.544250 112.804893 291.535980
v -709.669678 106.197884 314.858948
v -635.390869 -122.921989 415.890686
v -527.560730 -122.921989 385.189392
v -523.590881 100.158653 377.220825
v -635.084229 100.158653 415.375916
v -718.920044 -122.921989 340.048157
v -711.578247 71.704506 349.119171
v -515.774231 -122.921989 318.740997
v -516.926758 71.704506 317.139374
v -736.581665 -122.921989 106.462440
v -635.910522 -122.921989 101.135086
v -738.164063 -122.921989 148.923615
v -554.893555 -122.921989 103.501999
v -550.141968 -122.921989 140.101227
v -749.088379 -122.921989 3.296684
v -711.807617 -122.921989 -3.849998
v -615.936279 -122.921989 106.346901
v -735.740234 71.704506 165.688812
v -726.951782 110.117622 126.252251
v -558.268188 106.197884 112.633949
v -550.984741 71.704506 136.079803
v -747.803345 71.704506 14.825996
v -718.469482 90.142784 -2.282730
v -631.758789 106.197884 122.654411
v -610.313477 100.158653 122.786461
v -593.314819 -122.921989 32.114769
v -554.157471 -122.921989 29.016029
v -558.154297 71.704506 27.301689
v -593.733276 90.142784 39.568039
v -628.615967 122.921982 308.519135
v -573.400146 84.406441 33.853477
v -571.829712 -0.000000 18.173897
v -571.829712 -122.921989 18.173897
v -579.316895 122.921989 132.239777
v -578.479858 122.921989 67.917328
v -677.292847 122.921989 129.428619
v -714.621094 122.921989 51.188988
v -628.335693 122.921989 217.861145
v -591.241455 122.921989 215.510712
v -578.291748 122.921989 183.792267
v -555.586182 122.921989 182.842773
v -710.876221 122.921989 223.149750
v -677.118896 122.921989 221.104034
v -675.605957 122.921989 308.267975
v -677.605835 122.921989 361.970032
v -575.406006 -122.921989 412.390015
v -634.274292 -0.000000 411.018250
v -575.406006 -0.000000 412.390015
v -573.900513 84.406441 394.057800
v -531.752747 -0.000000 384.057861
v -686.560669 -122.921989 380.924500
v -715.271362 -0.000000 343.423401
v -686.560547 -0.000000 380.924438
v -683.161377 84.406441 380.640564
v -512.810303 -122.921989 349.055878
v -512.810303 -0.000000 349.055878
v -515.399109 84.406441 336.503815
v -516.070007 -0.000000 321.346527
v -711.221191 84.406441 343.085083
v -722.474121 -0.000000 325.818573
v -722.474121 -122.921989 325.818573
v -720.036255 -0.000000 293.696838
v -520.509583 84.406441 321.717377
v -529.474548 -0.000000 279.026428
v -521.072571 -0.000000 308.996063
v -521.072571 -122.921989 308.996063
v -725.801147 84.406441 224.306000
v -727.619507 -0.000000 224.382065
v -727.619385 -122.921989 224.382065
v -736.783569 -0.000000 155.275177
v -734.617065 84.406441 155.184570
v -737.810181 -0.000000 123.609016
v -737.810181 -122.921989 123.609016
v -737.740601 -0.000000 102.180107
v -550.762695 84.406441 146.293304
v -554.456177 -0.000000 100.327698
v -554.725098 -0.000000 115.952858
v -554.725098 -122.921989 115.952858
v -549.461182 -0.000000 146.238892
v -540.183777 -122.921989 212.704834
v -540.183777 -0.000000 212.704865
v -544.740051 84.406441 182.389221
v -738.504761 84.406441 53.856594
v -744.502197 -0.000000 55.508045
v -744.502197 -122.921989 55.508045
v -747.084717 -0.000000 7.260567
v -739.938721 84.406441 5.292892
v -737.856445 -0.000000 -17.620827
v -737.856445 -122.921989 -17.620827
v -710.057617 -0.000000 0.973831
v -671.943237 -122.921989 48.003658
v -638.631226 -0.000000 96.634956
v -671.943237 -0.000000 48.003651
v -688.680908 84.406441 48.703583
v -607.256104 84.406441 148.655731
v -621.356812 -0.000000 118.739235
v -621.356812 -122.921989 118.739235
v -615.529419 -0.000000 103.247917
v -551.608276 -122.921989 65.990891
v -551.608276 -0.000000 65.990891
v -557.944336 84.406441 51.008232
v -556.073120 -0.000000 32.326180
v -627.575928 122.921989 370.559509
v -574.695679 122.921989 359.663116
v -535.920715 122.921989 338.217957
v -575.488647 122.921989 295.165466
v -600.966919 84.406441 84.471588
v -607.302979 -0.000000 69.488930
v -607.302979 -122.921989 69.488930
v -592.365234 -0.000000 35.082985
v -596.870117 -40.973999 419.968079
v -553.941772 40.974007 404.811951
v -702.147949 -40.973999 362.857910
v -670.973267 40.974007 398.991028
v -512.211304 -40.973999 362.589233
v -513.409241 40.974007 335.522614
v -726.090332 40.974007 326.120636
v -718.857910 -40.973999 325.516541
v -523.227783 40.974007 309.176086
v -518.917419 -40.973999 308.816071
v -722.288208 40.974007 257.892181
v -732.950806 -40.973999 190.871948
v -739.744629 40.974007 123.689919
v -735.875854 -40.973999 123.528130
v -555.356934 40.974007 115.979279
v -554.093262 -40.973999 115.926437
v -535.968567 -40.973999 244.981964
v -544.399048 40.974007 180.427765
v -740.337158 40.974007 78.127480
v -748.667236 -40.973999 32.888611
v -744.236694 40.974007 -15.863968
v -731.476074 -40.973999 -19.377686
v -656.352417 -40.973999 71.635345
v -687.533936 40.974007 24.371971
v -622.628174 40.974007 118.792397
v -620.085449 -40.973999 118.686066
v -553.279053 -40.973999 82.671303
v -549.937622 40.974007 49.310482
v -593.667114 122.922005 380.963440
v -517.719543 122.922005 335.882660
v -556.246948 122.922005 339.100739
v -610.716309 40.974007 85.852531
v -603.889771 -40.973999 53.125332
v -580.240967 40.974007 18.915306
v -563.418579 -40.973999 17.432487
v -590.408813 122.922005 85.003326
v -566.760010 122.922005 50.793304
v -691.964478 122.922005 73.124557
v -735.906616 122.922005 29.374893
v -594.299438 122.922005 248.848358
v -590.083984 122.922005 182.338196
v -545.662720 122.922005 180.480621
v -567.233765 122.922005 181.382660
v -729.082031 122.922005 190.710144
v -662.455811 122.922005 186.791779
v -691.273926 122.922005 255.463013
v -694.915649 122.922005 362.253784
v -660.537720 122.922005 359.382294
vt 0.057877 0.703076
vt 0.136052 0.702012
vt 0.108916 0.807775
vt 0.061131 0.861915
vt 0.207536 0.701334
vt 0.137606 0.860756
vt 0.062196 0.991200
vt 0.167075 0.912755
vt 0.146013 0.971834
vt 0.205634 0.860161
vt 0.216600 0.990702
vt 0.541657 0.028696
vt 0.611023 0.037397
vt 0.570879 0.138244
vt 0.536247 0.185553
vt 0.691727 0.048582
vt 0.595958 0.196262
vt 0.530566 0.277961
vt 0.614306 0.255908
vt 0.576601 0.304859
vt 0.672204 0.211360
vt 0.640885 0.348096
vt 0.257849 0.700970
vt 0.242872 0.807148
vt 0.138444 0.358145
vt 0.108492 0.526248
vt 0.087908 0.474168
vt 0.098119 0.363693
vt 0.256932 0.861056
vt 0.094152 0.669335
vt 0.132724 0.575062
vt 0.139805 0.633387
vt 0.145751 0.520227
vt 0.160309 0.609977
vt 0.514757 0.292139
vt 0.519289 0.231933
vt 0.477319 0.319469
vt 0.508801 0.184839
vt 0.512598 0.132015
vt 0.521841 0.025800
vt 0.468824 0.179720
vt 0.486354 0.021344
vt 0.204701 0.658159
vt 0.162021 0.629390
vt 0.170203 0.570450
vt 0.204186 0.512198
vt 0.163438 0.517706
vt 0.187851 0.352119
vt 0.159317 0.464790
vt 0.153398 0.356253
vt 0.373927 0.276983
vt 0.419002 0.226634
vt 0.301147 0.256774
vt 0.380870 0.169817
vt 0.336851 0.116758
vt 0.381520 0.015268
vt 0.291360 0.165994
vt 0.276081 0.014900
vt 0.283753 0.275171
vt 0.271057 0.211871
vt 0.247987 0.308344
vt 0.246080 0.172964
vt 0.244692 0.120682
vt 0.241755 0.015931
vt 0.218551 0.173249
vt 0.218752 0.016578
vt 0.417839 0.645822
vt 0.378718 0.614020
vt 0.418795 0.564021
vt 0.441458 0.514462
vt 0.381301 0.594835
vt 0.420790 0.513140
vt 0.445487 0.355443
vt 0.423508 0.459627
vt 0.428469 0.354446
vt 0.380060 0.508832
vt 0.394572 0.352439
vt 0.292784 0.348897
vt 0.247186 0.455435
vt 0.290622 0.505125
vt 0.330863 0.558590
vt 0.330305 0.616759
vt 0.158432 0.283421
vt 0.187502 0.225845
vt 0.109358 0.267427
vt 0.157969 0.174921
vt 0.126184 0.125558
vt 0.149693 0.020661
vt 0.096142 0.179271
vt 0.081565 0.025698
vt 0.097343 0.286481
vt 0.069056 0.233822
vt 0.928802 0.425732
vt 0.961051 0.308816
vt 0.967184 0.362367
vt 0.959157 0.424783
vt 0.062386 0.182409
vt 0.051799 0.131702
vt 0.051114 0.028342
vt 0.917744 0.308616
vt 0.955510 0.255344
vt 0.922154 0.149594
vt 0.960312 0.149100
vt 0.754435 0.151187
vt 0.837460 0.150432
vt 0.801737 0.256964
vt 0.762415 0.310376
vt 0.838827 0.309757
vt 0.730652 0.448767
vt 0.876655 0.361793
vt 0.851300 0.420762
vt 0.684406 0.420561
vt 0.726812 0.363442
vt 0.911085 0.856696
vt 0.916771 0.727911
vt 0.948185 0.771210
vt 0.946218 0.842605
vt 0.726064 0.310494
vt 0.724588 0.257461
vt 0.724860 0.151389
vt 0.895547 0.726920
vt 0.916304 0.675166
vt 0.900236 0.569851
vt 0.917470 0.570120
vt 0.496350 0.359932
vt 0.467365 0.463771
vt 0.545063 0.364534
vt 0.485954 0.518317
vt 0.503220 0.573431
vt 0.497250 0.630639
vt 0.530024 0.522868
vt 0.528985 0.616095
vt 0.286770 0.831957
vt 0.301668 0.744286
vt 0.342990 0.783391
vt 0.353461 0.826396
vt 0.343694 0.686348
vt 0.369358 0.757970
vt 0.432743 0.831599
vt 0.154039 0.654963
vt 0.154106 0.681395
vt 0.461078 0.709386
vt 0.452941 0.763367
vt 0.396912 0.735136
vt 0.399932 0.708691
vt 0.862940 0.835423
vt 0.870367 0.778517
vt 0.807796 0.835871
vt 0.850907 0.725426
vt 0.829846 0.673292
vt 0.851531 0.569455
vt 0.802440 0.725109
vt 0.800098 0.569302
vt 0.780268 0.835781
vt 0.779218 0.777418
vt 0.755727 0.820761
vt 0.767469 0.726501
vt 0.757375 0.674229
vt 0.767374 0.569537
vt 0.555498 0.472907
vt 0.557144 0.526703
vt 0.571938 0.367323
vt 0.918521 0.905451
vt 0.856955 0.886841
vt 0.693413 0.749429
vt 0.747429 0.789265
vt 0.722908 0.800513
vt 0.663419 0.780346
vt 0.829337 0.887937
vt 0.801292 0.888640
vt 0.492601 0.682875
vt 0.467183 0.683847
vt 0.525670 0.641254
vt 0.674948 0.844411
vt 0.785456 0.902266
vt 0.732889 0.928991
vt 0.661500 0.906332
vt 0.842613 0.953866
vt 0.761306 0.958126
vt 0.662057 0.972926
vt 0.163038 0.341624
vt 0.126961 0.333505
vt 0.847506 0.983888
vt 0.788499 0.986643
vt 0.511796 0.790826
vt 0.549962 0.836967
vt 0.554950 0.789116
vt 0.601430 0.479922
vt 0.617282 0.439975
vt 0.596883 0.774773
vt 0.597874 0.790123
vt 0.991125 0.895436
vt 0.984509 0.909168
vt 0.343529 0.653183
vt 0.341113 0.665702
vt 0.980768 0.923105
vt 0.600001 0.745520
vt 0.600921 0.760687
vt 0.336072 0.300319
vt 0.357367 0.332989
vt 0.588170 0.883118
vt 0.542711 0.899856
vt 0.497196 0.916300
vt 0.429732 0.892554
vt 0.537705 0.943368
vt 0.417739 0.940853
vt 0.543205 0.332490
vt 0.543260 0.352897
vt 0.364494 0.869579
vt 0.359985 0.891324
vn -0.349483 -0.012675 0.936857
vn 0.242680 -0.008445 0.970070
vn 0.148844 -0.004029 0.988853
vn -0.279366 0.002804 0.960181
vn 0.655076 -0.009009 0.755509
vn 0.311448 0.034076 0.949652
vn -0.110419 0.323176 0.939875
vn 0.419792 0.132141 0.897950
vn 0.326328 0.336438 0.883357
vn 0.693761 0.014041 0.720069
vn 0.679516 0.345800 0.647055
vn -0.866638 -0.003144 0.498928
vn -0.685298 -0.001167 0.728262
vn -0.720201 -0.000639 0.693765
vn -0.844542 0.002786 0.535483
vn -0.633304 -0.002705 0.773898
vn -0.808634 0.046159 0.586499
vn -0.570362 0.022518 0.821085
vn -0.634829 0.132327 0.761237
vn 0.972851 -0.008691 0.231271
vn 0.956537 -0.005198 0.291566
vn 0.986212 -0.001651 -0.165476
vn 0.982787 0.013866 0.184223
vn 0.998673 0.037260 0.035542
vn 0.987573 0.123993 0.096573
vn 0.982592 0.001629 -0.185768
vn 0.923817 0.059653 -0.378159
vn -0.939065 0.255562 0.229880
vn -0.987153 0.114869 0.111063
vn -0.872048 0.480308 0.094004
vn -0.994291 0.034403 0.101002
vn -0.999112 0.012808 -0.040139
vn -0.999337 0.006007 -0.035905
vn -0.997447 0.024610 0.067044
vn -0.997517 0.003353 0.070341
vn 0.873520 0.449734 -0.186286
vn 0.922773 0.149987 -0.354956
vn 0.923969 0.062946 -0.377252
vn 0.979921 0.026160 -0.197661
vn 0.953539 0.006890 -0.301192
vn 0.976051 0.002143 -0.217531
vn 0.928519 -0.001504 -0.371281
vn 0.928937 -0.001947 -0.370232
vn -0.979019 0.124407 0.161384
vn -0.989502 0.034581 0.140323
vn -0.992195 0.029824 0.121075
vn -0.991826 0.006107 0.127455
vn -0.991480 -0.000207 0.130259
vn -0.991375 -0.000722 0.131053
vn -0.995274 0.001982 0.097082
vn -0.996778 -0.001938 0.080183
vn -0.972928 0.224639 -0.054300
vn -0.991846 0.076093 -0.102234
vn -0.664285 0.746274 0.042445
vn -0.999708 0.021681 0.010669
vn -0.999514 0.006336 -0.030529
vn -0.999584 0.002335 -0.028760
vn -0.993811 0.027472 0.107632
vn -0.993310 0.001629 0.115464
vn 0.907887 0.416052 -0.051411
vn 0.975024 0.123041 -0.184903
vn 0.986184 0.038863 -0.161031
vn 0.998358 0.011680 0.056074
vn 0.984232 0.018774 -0.175884
vn 0.995820 0.003382 -0.091275
vn 0.998822 0.000597 0.048517
vn 0.989682 -0.000541 -0.143278
vn 0.989586 -0.001075 -0.143939
vn 0.989125 0.000674 -0.147077
vn 0.989421 -0.000576 -0.145073
vn 0.989599 0.000819 -0.143852
vn 0.988416 0.008842 -0.151514
vn 0.990749 0.014109 -0.134972
vn 0.992751 0.010178 -0.119755
vn 0.992297 0.059576 -0.108616
vn -0.967127 0.210901 0.142076
vn -0.986129 0.063926 0.153177
vn -0.995206 0.097168 0.011107
vn -0.992177 0.014706 0.123972
vn -0.995639 -0.001341 0.093279
vn -0.993320 -0.002727 0.115362
vn -0.993802 0.005670 -0.111023
vn -0.984624 -0.005901 -0.174589
vn -0.671176 0.432706 -0.601904
vn -0.697582 0.177969 -0.694050
vn 0.574517 0.348286 -0.740694
vn -0.335526 0.042826 -0.941057
vn 0.115826 -0.000033 -0.993270
vn 0.061775 -0.009367 -0.998046
vn 0.715108 0.024452 -0.698586
vn 0.731625 -0.005207 -0.681687
vn 0.805782 0.001045 -0.592212
vn 0.812040 0.000424 -0.583601
vn 0.816669 0.010584 -0.577009
vn 0.811646 0.037796 -0.582926
vn 0.803440 0.047649 -0.593476
vn 0.629796 0.605418 -0.486647
vn 0.790973 0.117879 -0.600388
vn 0.772209 0.308252 -0.555584
vn 0.198394 0.679488 -0.706354
vn 0.583422 0.189704 -0.789704
vn -0.884878 0.453675 -0.105692
vn 0.359493 0.050232 -0.931795
vn -0.203766 0.009569 -0.978973
vn -0.201186 0.002531 -0.979550
vn -0.963987 0.031708 -0.264052
vn -0.965900 0.000964 -0.258914
vn 0.999779 0.000280 0.021021
vn 0.999343 0.002179 0.036173
vn 0.958511 -0.006495 -0.284981
vn 0.999719 0.014239 -0.018955
vn 0.996244 0.067762 -0.053909
vn 0.976822 0.197195 -0.083260
vn 0.937902 0.006629 -0.346836
vn 0.700681 0.175401 -0.691579
vn 0.146858 0.865776 0.478397
vn 0.035775 0.963336 0.265900
vn 0.107103 0.953688 0.281083
vn 0.000000 1.000000 -0.000000
vn 0.878481 0.476440 -0.035735
vn 0.480092 0.875098 0.060962
vn 0.074106 0.996830 -0.028953
vn 0.099550 0.992926 0.064708
vn -0.949583 0.241874 -0.199474
vn -0.970999 0.101225 -0.216597
vn -0.841604 0.254520 -0.476364
vn -0.956231 0.022876 -0.291718
vn -0.943386 -0.000435 -0.331697
vn -0.952339 -0.003437 -0.305023
vn -0.811395 0.014803 -0.584312
vn -0.764174 -0.005895 -0.644983
vn -0.205140 0.354926 -0.912110
vn -0.405981 0.136425 -0.903641
vn -0.230391 0.013691 -0.973002
vn 0.156261 -0.005637 -0.987700
vn 0.086775 -0.007847 -0.996197
vn -0.179191 0.980585 -0.079653
vn -0.502954 0.854405 -0.130496
vn 0.169060 0.941713 -0.290852
vn 0.589743 0.696948 -0.408003
vn 0.300007 0.921671 -0.246004
vn 0.124193 0.981859 -0.143279
vn -0.151562 0.963013 -0.222789
vn -0.689525 0.689365 -0.222106
vn 0.068021 0.997166 -0.032150
vn 0.031880 0.997645 -0.060724
vn 0.075671 0.993561 -0.084325
vn 0.014465 0.973073 -0.230043
vn -0.191838 0.980199 0.049083
vn 0.952832 0.270133 -0.138349
vn 0.708170 0.699946 -0.092578
vn -0.010113 0.999930 -0.006137
vn -0.913044 0.404915 0.048926
vn -0.575209 0.815295 0.066554
vn 0.023468 0.998142 -0.056234
vn -0.032917 0.999038 -0.028981
vn -0.145997 0.988223 0.045838
vn -0.138900 0.989802 0.031623
vn -0.730516 0.477644 0.488061
vn -0.445869 0.796657 0.408091
vn -0.087116 0.985768 0.143776
s 1
g Canyon_1
usemtl initialShadingGroup
f 5/1/1 49/2/2 114/3/3 50/4/4
f 6/5/5 51/6/6 114/3/3 49/2/2
f 8/7/7 50/4/4 114/3/3 51/6/6
f 8/7/7 51/6/6 115/8/8 52/9/9
f 6/5/5 53/10/10 115/8/8 51/6/6
f 7/11/11 52/9/9 115/8/8 53/10/10
f 9/12/12 54/13/13 116/14/14 55/15/15
f 5/16/1 56/17/16 116/14/14 54/13/13
f 10/18/17 55/15/15 116/14/14 56/17/16
f 10/18/17 56/17/16 117/19/18 57/20/19
f 5/16/1 50/21/4 117/19/18 56/17/16
f 8/22/7 57/20/19 117/19/18 50/21/4
f 6/5/5 58/23/20 118/24/21 53/10/10
f 11/25/22 59/26/23 118/27/21 58/28/20
f 7/11/11 53/10/10 118/24/21 59/29/23
f 7/30/11 59/26/23 119/31/24 60/32/25
f 11/25/22 61/33/26 119/31/24 59/26/23
f 12/34/27 60/32/25 119/31/24 61/33/26
f 10/18/17 62/35/28 120/36/29 55/15/15
f 4/37/30 63/38/31 120/36/29 62/35/28
f 9/12/12 55/15/15 120/36/29 63/38/31
f 9/12/12 63/38/31 121/39/32 64/40/33
f 4/37/30 65/41/34 121/39/32 63/38/31
f 1/42/35 64/40/33 121/39/32 65/41/34
f 3/43/36 66/44/37 122/45/38 67/46/39
f 12/34/27 68/47/40 122/45/38 66/44/37
f 2/48/41 67/46/39 122/45/38 68/47/40
f 2/48/41 68/47/40 123/49/42 69/50/43
f 12/34/27 61/33/26 123/49/42 68/47/40
f 11/25/22 69/50/43 123/49/42 61/33/26
f 4/37/30 70/51/44 124/52/45 65/41/34
f 21/53/46 71/54/47 124/52/45 70/51/44
f 1/42/35 65/41/34 124/52/45 71/54/47
f 1/42/35 71/54/47 125/55/48 72/56/49
f 21/53/46 73/57/50 125/55/48 71/54/47
f 15/58/51 72/56/49 125/55/48 73/57/50
f 21/53/46 74/59/52 126/60/53 73/57/50
f 22/61/54 75/62/55 126/60/53 74/59/52
f 15/58/51 73/57/50 126/60/53 75/62/55
f 15/58/51 75/62/55 127/63/56 76/64/57
f 22/61/54 77/65/58 127/63/56 75/62/55
f 13/66/59 76/64/57 127/63/56 77/65/58
f 23/67/60 78/68/61 128/69/62 79/70/63
f 24/71/64 80/72/65 128/69/62 78/68/61
f 16/73/66 79/70/63 128/69/62 80/72/65
f 16/73/66 80/72/65 129/74/67 81/75/68
f 24/71/64 82/76/69 129/74/67 80/72/65
f 17/77/70 81/75/68 129/74/67 82/76/69
f 2/48/41 83/78/71 130/79/72 67/46/39
f 17/77/70 84/80/73 130/79/72 83/78/71
f 3/43/36 67/46/39 130/79/72 84/80/73
f 3/43/36 84/80/73 131/81/74 85/82/75
f 17/77/70 82/76/69 131/81/74 84/80/73
f 24/71/64 85/82/75 131/81/74 82/76/69
f 22/61/54 86/83/76 132/84/77 77/65/58
f 25/85/78 87/86/79 132/84/77 86/83/76
f 13/66/59 77/65/58 132/84/77 87/86/79
f 13/66/59 87/86/79 133/87/80 88/88/81
f 25/85/78 89/89/82 133/87/80 87/86/79
f 18/90/83 88/88/81 133/87/80 89/89/82
f 25/85/78 90/91/84 134/92/85 89/89/82
f 26/93/86 91/94/87 134/95/85 90/96/84
f 18/90/83 89/89/82 134/92/85 91/97/87
f 18/90/83 91/97/87 135/98/88 92/99/89
f 26/93/86 93/100/90 135/101/88 91/94/87
f 19/102/91 92/103/89 135/101/88 93/100/90
f 14/104/92 94/105/93 136/106/94 95/107/95
f 19/102/91 96/108/96 136/106/94 94/105/93
f 27/109/97 95/107/95 136/106/94 96/108/96
f 27/109/97 96/108/96 137/110/98 97/111/99
f 19/102/91 93/100/90 137/110/98 96/108/96
f 26/93/86 97/111/99 137/110/98 93/100/90
f 27/109/97 98/112/100 138/113/101 95/107/95
f 28/114/102 99/115/103 138/116/101 98/117/100
f 14/104/92 95/107/95 138/113/101 99/118/103
f 14/104/92 99/118/103 139/119/104 100/120/105
f 28/114/102 101/121/106 139/122/104 99/115/103
f 20/123/107 100/124/105 139/122/104 101/121/106
f 16/73/66 102/125/108 140/126/109 79/70/63
f 30/127/110 103/128/111 140/126/109 102/125/108
f 23/67/60 79/70/63 140/126/109 103/128/111
f 23/67/60 103/128/111 141/129/112 104/130/113
f 30/127/110 105/131/114 141/129/112 103/128/111
f 31/132/115 104/130/113 141/129/112 105/131/114
f 8/133/7 52/134/9 142/135/116 106/136/117
f 7/137/11 107/138/118 142/135/116 52/134/9
f 33/139/119 106/136/117 142/135/116 107/138/118
f 12/34/27 66/44/37 143/140/120 60/32/25
f 3/43/36 108/141/121 143/140/120 66/44/37
f 7/30/11 60/32/25 143/140/120 108/141/121
f 3/142/36 109/143/122 144/144/123 108/145/121
f 33/139/119 107/138/118 144/144/123 109/143/122
f 7/137/11 108/145/121 144/144/123 107/138/118
f 28/114/102 110/146/124 145/147/125 101/121/106
f 32/148/126 111/149/127 145/147/125 110/146/124
f 20/123/107 101/121/106 145/147/125 111/149/127
f 20/123/107 111/149/127 146/150/128 112/151/129
f 32/148/126 113/152/130 146/150/128 111/149/127
f 29/153/131 112/151/129 146/150/128 113/152/130
f 32/148/126 34/154/132 147/155/133 113/152/130
f 31/156/115 35/157/134 147/155/133 34/154/132
f 29/153/131 113/152/130 147/155/133 35/157/134
f 29/153/131 35/157/134 148/158/135 36/159/136
f 31/132/115 105/131/114 148/160/135 35/161/134
f 30/127/110 36/162/136 148/160/135 105/131/114
f 28/114/102 37/163/137 149/164/138 110/146/124
f 23/165/60 38/166/139 149/167/138 37/168/137
f 32/148/126 110/146/124 149/164/138 38/169/139
f 32/148/126 38/169/139 150/170/140 34/154/132
f 23/67/60 104/130/113 150/171/140 38/172/139
f 31/132/115 34/173/132 150/171/140 104/130/113
f 27/174/97 97/175/99 151/176/141 39/177/142
f 26/178/86 40/179/143 151/176/141 97/175/99
f 22/180/54 39/177/142 151/176/141 40/179/143
f 22/61/54 40/181/143 152/182/144 86/83/76
f 26/178/86 90/183/84 152/184/144 40/179/143
f 25/85/78 86/83/76 152/182/144 90/91/84
f 33/139/119 109/143/122 153/185/145 41/186/146
f 3/142/36 42/187/147 153/185/145 109/143/122
f 27/174/97 41/186/146 153/185/145 42/187/147
f 27/109/97 42/188/147 154/189/148 98/112/100
f 3/142/36 43/190/149 154/191/148 42/187/147
f 28/114/102 98/117/100 154/192/148 43/193/149
f 24/71/64 78/68/61 155/194/150 85/82/75
f 23/67/60 44/195/151 155/194/150 78/68/61
f 3/43/36 85/82/75 155/194/150 44/195/151
f 28/114/102 43/193/149 156/196/152 37/163/137
f 3/142/36 44/197/151 156/198/152 43/190/149
f 23/165/60 37/168/137 156/198/152 44/197/151
f 21/53/46 70/51/44 157/199/153 74/59/52
f 4/37/30 45/200/154 157/199/153 70/51/44
f 22/61/54 74/59/52 157/199/153 45/200/154
f 27/174/97 39/177/142 158/201/155 41/186/146
f 22/180/54 46/202/156 158/201/155 39/177/142
f 33/139/119 41/186/146 158/201/155 46/202/156
f 33/139/119 46/202/156 159/203/157 47/204/158
f 22/180/54 45/205/154 159/203/157 46/202/156
f 4/206/30 47/204/158 159/203/157 45/205/154
f 10/18/17 57/20/19 160/207/159 62/35/28
f 8/22/7 48/208/160 160/207/159 57/20/19
f 4/37/30 62/35/28 160/207/159 48/208/160
f 8/133/7 106/136/117 161/209/161 48/210/160
f 33/139/119 47/204/158 161/209/161 106/136/117
f 4/206/30 48/210/160 161/209/161 47/204/158
