# This file uses meters as units for non-parametric coordinates.

mtllib canyon4.mtl
g default
v -176.077789 197.778412 199.453476
v -40.859180 197.778412 323.268219
v -46.799786 -35.261200 340.688385
v -188.905472 -35.261200 199.120270
v 35.031025 187.819443 228.155640
v -98.510651 197.778412 110.031555
v -88.932617 -35.261200 77.313141
v 48.653194 -35.261200 220.140594
v -10.680423 -35.261200 343.413116
v 38.014145 -35.261200 286.632813
v 35.926468 177.803574 285.740967
v -4.996439 159.365295 337.379150
v -183.728012 -35.261200 172.403976
v -127.351151 -35.261200 116.404633
v -132.524719 177.803574 122.447716
v -184.261108 159.365295 174.974365
v 99.634285 -35.261200 -85.189545
v 88.696060 177.803574 -92.564293
v 65.737732 -35.261200 -121.164940
v 48.454670 159.365295 -99.222099
v -127.385483 177.803558 343.154480
v -130.122269 -35.261200 348.686371
v -199.644073 159.365295 273.659912
v -206.577972 -35.261200 263.264587
v -176.665222 87.660789 312.086609
v -202.791946 -35.261200 225.197891
v -202.791946 87.660789 225.197891
v -14.236683 210.582779 162.383484
v 19.208267 210.582779 10.388511
v 6.569522 210.582779 308.011963
v -10.333994 210.582779 268.109406
v -74.578079 210.582779 225.311966
v -151.505188 210.582779 148.390106
v -126.032516 210.582779 173.445221
v -113.765427 210.582779 255.609924
v -92.204056 172.067230 322.861023
v -148.118149 210.582779 284.564117
v -170.199463 172.067230 301.844055
v -194.605560 172.067230 252.423019
v 15.598464 -35.261200 316.948364
v -9.408388 87.660789 340.248657
v 15.598464 87.660789 316.948334
v 12.084328 172.067230 313.498779
v 35.763428 87.660789 288.821747
v -26.916937 -35.261200 344.895264
v -48.995560 87.660789 342.411621
v -26.916937 87.660789 344.895264
v -13.595442 172.067230 336.138550
v 42.661034 -35.261200 273.598419
v 42.661034 87.660789 273.598419
v 29.339542 172.067230 282.355103
v 51.244713 87.660789 207.711029
v -188.516785 -35.261200 186.265533
v -180.903595 87.660789 170.474014
v -188.516769 87.660789 186.265533
v -176.536270 172.067230 174.761078
v -190.615204 87.660789 200.795181
v -166.628952 172.067230 156.766571
v -156.641296 87.660789 143.305878
v -156.641296 -35.261200 143.305878
v -129.617340 87.660789 118.891129
v -115.952065 -35.261200 109.133591
v -82.709259 87.660789 68.607468
v -115.952065 87.660789 109.133598
v -126.708496 172.067230 121.797142
v 75.104683 -35.261200 68.554749
v 75.104683 87.660789 68.554741
v 51.303558 172.067230 43.875526
v 96.555893 87.660789 -73.306801
v 99.860794 -35.261200 -145.122726
v 99.860794 87.660789 -145.122726
v 64.566246 172.067230 -106.931648
v 60.114227 87.660789 -111.795319
v -9.044867 172.067230 -19.154352
v -12.781377 87.660789 -23.236347
v -12.781376 -35.261200 -23.236347
v -84.017677 87.660789 350.086182
v -84.017677 -35.261200 350.086182
v -130.177795 87.660789 344.227722
v -176.665207 -35.261200 312.086609
v -202.309448 87.660789 264.626923
v -116.730652 210.582809 297.560425
v -178.495667 210.582809 272.227386
v 5.165107 46.686790 329.933716
v 26.031822 128.634796 303.962982
v -30.655378 46.686790 341.225525
v -23.178493 128.634796 348.565002
v 44.073536 46.686790 275.063049
v 41.248535 128.634796 272.133820
v -190.636841 46.686790 184.184448
v -186.396729 128.634796 188.346649
v -169.386536 128.634796 155.544678
v -143.896072 46.686790 131.067108
v -115.134216 46.686790 109.981628
v -116.769913 128.634796 108.285583
v 62.877636 46.686790 135.438019
v 87.331734 128.634796 1.671463
v 103.835823 46.686790 -140.780182
v 95.885788 128.634796 -149.465271
v -46.353760 128.634796 21.734993
v 20.791000 46.686790 -68.207687
v -68.722542 128.634796 344.686157
v -99.312820 46.686790 355.486267
v -192.252594 46.686790 294.020050
v -161.077850 128.634796 330.153198
v -195.913513 46.686790 214.301544
v -209.670395 128.634796 236.094238
v 12.236950 210.582809 82.929054
v 28.741022 210.582809 -59.522598
v -2.311778 210.582809 322.594238
v 15.729937 210.582809 293.694305
v -37.735748 210.582809 238.256104
v -165.146393 210.582809 159.706879
v -138.020248 210.582809 136.925354
v -111.262466 210.582809 212.690857
vt 0.706372 0.886369
vt 0.659371 0.756284
vt 0.715842 0.763834
vt 0.746659 0.825186
vt 0.612781 0.650182
vt 0.715453 0.719009
vt 0.786770 0.787234
vt 0.729209 0.675085
vt 0.781810 0.710124
vt 0.690245 0.627910
vt 0.829643 0.549621
vt 0.878517 0.572358
vt 0.833489 0.619908
vt 0.802544 0.567901
vt 0.968124 0.177316
vt 0.968318 0.226247
vt 0.862375 0.205360
vt 0.809713 0.182074
vt 0.968274 0.275524
vt 0.808897 0.227809
vt 0.718956 0.190752
vt 0.753732 0.248566
vt 0.699525 0.226605
vt 0.807351 0.273222
vt 0.683865 0.271295
vt 0.967948 0.129058
vt 0.968224 0.155805
vt 0.861647 0.151098
vt 0.807792 0.127832
vt 0.808933 0.156895
vt 0.663675 0.143600
vt 0.756606 0.167583
vt 0.701388 0.179178
vt 0.026230 0.024254
vt 0.044557 0.024470
vt 0.042547 0.132124
vt 0.021375 0.185914
vt 0.115392 0.025238
vt 0.043549 0.186465
vt 0.020355 0.305721
vt 0.042825 0.241211
vt 0.031675 0.301813
vt 0.130624 0.187219
vt 0.101877 0.319433
vt 0.695865 0.298706
vt 0.715487 0.298683
vt 0.712524 0.404161
vt 0.691270 0.457431
vt 0.732716 0.298578
vt 0.714927 0.457142
vt 0.697417 0.547164
vt 0.716295 0.510075
vt 0.697824 0.565577
vt 0.733891 0.457123
vt 0.728299 0.599353
vt 0.670089 0.568259
vt 0.666973 0.511146
vt 0.607369 0.579675
vt 0.643644 0.458548
vt 0.620987 0.405830
vt 0.644159 0.299040
vt 0.596891 0.459906
vt 0.592443 0.299118
vt 0.425908 0.341492
vt 0.480918 0.340805
vt 0.482245 0.448140
vt 0.414525 0.503231
vt 0.498735 0.340553
vt 0.483538 0.501805
vt 0.472929 0.647866
vt 0.506565 0.550457
vt 0.510701 0.611465
vt 0.577411 0.514871
vt 0.575226 0.460283
vt 0.598693 0.573230
vt 0.316443 0.025032
vt 0.227403 0.133180
vt 0.521028 0.022287
vt 0.317242 0.186811
vt 0.408300 0.238113
vt 0.344704 0.304493
vt 0.506687 0.183695
vt 0.531676 0.303371
vt 0.599890 0.021393
vt 0.595456 0.129344
vt 0.095309 0.346992
vt 0.044006 0.509620
vt 0.040392 0.455365
vt 0.040553 0.347448
vt 0.601185 0.183613
vt 0.606756 0.237962
vt 0.566185 0.318508
vt 0.112147 0.508216
vt 0.045294 0.564010
vt 0.136759 0.601670
vt 0.115070 0.620486
vt 0.266056 0.616808
vt 0.337509 0.558206
vt 0.262959 0.505585
vt 0.188336 0.453002
vt 0.260269 0.344179
vt 0.687413 0.077161
vt 0.753894 0.101554
vt 0.689392 0.025071
vt 0.807330 0.081444
vt 0.859994 0.060501
vt 0.966211 0.078052
vt 0.805292 0.020379
vt 0.964076 0.017355
vt 0.821564 0.299518
vt 0.897187 0.302374
vt 0.862637 0.406447
vt 0.821036 0.457384
vt 0.974543 0.306381
vt 0.890945 0.461055
vt 0.917158 0.516461
vt 0.964212 0.466366
vt 0.956161 0.585291
vt 0.771365 0.298605
vt 0.753496 0.404382
vt 0.768818 0.456923
vt 0.785314 0.508994
vt 0.546634 0.940144
vt 0.304746 0.895903
vt 0.376126 0.841316
vt 0.489562 0.843452
vt 0.116161 0.881462
vt 0.278813 0.818232
vt 0.460431 0.715342
vt 0.183385 0.804887
vt 0.250333 0.747499
vt 0.098100 0.847266
vt 0.194413 0.669019
vt 0.668103 0.206948
vt 0.648222 0.210515
vt 0.620345 0.982958
vt 0.608099 0.977836
vt 0.646500 0.940656
vt 0.668404 0.939209
vt 0.622529 0.898659
vt 0.598282 0.848158
vt 0.600703 0.793433
vt 0.677644 0.616865
vt 0.538363 0.651678
vt 0.538443 0.628384
vt 0.589555 0.607169
vt 0.654366 0.619821
vt 0.480114 0.661195
vt 0.523685 0.664755
vt 0.471797 0.668500
vt 0.554699 0.703269
vt 0.600583 0.740302
vn -0.083001 0.798978 0.595605
vn -0.029282 0.996606 0.076934
vn 0.016236 0.914009 0.405369
vn 0.115272 0.565634 0.816560
vn -0.613405 0.775491 -0.149496
vn -0.292395 0.920363 0.259687
vn -0.200026 0.413899 0.888075
vn -0.667296 0.715745 0.205973
vn -0.681107 0.310311 0.663175
vn -0.907372 0.411177 -0.087235
vn -0.891251 0.164765 0.422521
vn 0.459129 -0.004767 0.888357
vn 0.749846 -0.002307 0.661608
vn 0.732961 -0.001513 0.680269
vn 0.524124 0.004135 0.851632
vn 0.833996 -0.001576 0.551768
vn 0.768853 0.008593 0.639368
vn 0.643875 0.077334 0.761212
vn 0.790187 0.045420 0.611181
vn 0.758205 0.108550 0.642917
vn 0.843720 0.007581 0.536730
vn 0.869862 0.162448 0.465781
vn 0.139840 0.003301 0.990169
vn -0.086401 0.004393 0.996251
vn -0.088695 0.013785 0.995964
vn 0.088922 0.065144 0.993906
vn 0.029408 0.058361 0.997862
vn -0.156618 0.134542 0.978453
vn -0.032981 0.266345 0.963313
vn 0.981066 -0.001280 0.193670
vn 0.981006 -0.000505 0.193977
vn 0.988926 0.001796 0.148399
vn 0.984951 0.007354 0.172678
vn 0.989816 0.115837 0.082746
vn 0.932992 0.359069 0.024405
vn 0.986640 0.050767 0.154805
vn 0.848686 0.520920 0.091511
vn -0.780357 -0.002366 -0.625329
vn -0.965109 -0.004051 -0.261818
vn -0.964998 -0.002862 -0.262242
vn -0.793294 0.002463 -0.608833
vn -0.960092 0.002474 -0.279672
vn -0.964985 0.012009 -0.262028
vn -0.900675 0.082031 -0.426680
vn -0.989196 0.146396 0.007744
vn -0.962119 0.221729 -0.158630
vn -0.940835 0.049892 -0.335171
vn -0.731591 0.068852 -0.678258
vn -0.726059 0.024552 -0.687194
vn -0.647997 0.084649 -0.756924
vn -0.712236 0.005300 -0.701921
vn -0.692370 0.000387 -0.721543
vn -0.700305 -0.000515 -0.713844
vn -0.639576 0.005615 -0.768707
vn -0.624497 -0.001116 -0.781026
vn -0.790485 0.001232 -0.612480
vn -0.737229 0.002190 -0.675640
vn -0.734965 0.020070 -0.677808
vn -0.795387 0.044676 -0.604453
vn -0.720462 0.062803 -0.690645
vn -0.455317 0.808901 -0.371976
vn -0.432263 0.075192 -0.898607
vn -0.395202 0.287826 -0.872337
vn 0.986283 0.000447 0.165061
vn 0.985639 0.025255 0.166964
vn 0.992463 -0.004988 0.122444
vn 0.982265 0.104761 0.155501
vn 0.974005 0.167797 0.152182
vn 0.859775 0.490813 0.141027
vn 0.990090 0.067305 0.123257
vn 0.870015 0.491487 0.038915
vn 0.928322 -0.010731 -0.371622
vn 0.937154 0.023841 -0.348100
vn -0.708569 -0.006278 -0.705614
vn 0.434025 0.141680 -0.889690
vn -0.262042 0.287016 -0.921388
vn -0.200089 0.656708 -0.727117
vn -0.732065 0.007289 -0.681196
vn -0.757029 0.089115 -0.647275
vn -0.761717 0.340157 -0.551434
vn -0.804899 0.067738 -0.589533
vn -0.792850 0.017390 -0.609168
vn -0.778795 0.000233 -0.627278
vn -0.790490 -0.001765 -0.612473
vn 0.162951 0.246078 0.955454
vn 0.095944 0.062603 0.993416
vn 0.011465 0.001273 0.999934
vn 0.063030 -0.008438 0.997976
vn -0.393783 0.026682 0.918816
vn -0.447049 -0.010055 0.894453
vn -0.980325 -0.009208 0.197175
vn -0.759761 -0.004782 0.650185
vn -0.803785 -0.001897 0.594917
vn -0.964086 0.009756 0.265412
vn -0.708574 0.018565 0.705392
vn -0.632782 0.101012 0.767714
vn -0.955390 0.001187 -0.295346
vn -0.946617 0.007454 -0.322274
vn -0.979103 0.037574 -0.199863
vn -0.973336 0.148592 -0.174752
vn 0.246846 0.968801 0.022165
vn 0.206726 0.978352 -0.009595
vn 0.061430 0.991116 -0.117968
vn -0.305326 0.824456 -0.476496
vn 0.354228 0.462321 0.812885
vn 0.265046 0.858783 0.438455
vn 0.421481 0.906819 0.005762
vn 0.203590 0.977966 0.046189
vn 0.048357 0.998693 0.016577
vn -0.012856 0.999877 -0.008989
vn -0.827946 0.295642 -0.476551
vn -0.539505 0.762898 -0.356259
vn -0.205936 0.874326 -0.439483
vn -0.029065 0.997191 -0.069032
vn -0.023933 0.999648 -0.011458
s 1
g Canyon_2
usemtl initialShadingGroup
f 2/1/1 35/2/2 82/3/3 36/4/4
f 1/5/5 37/6/6 82/3/3 35/2/2
f 21/7/7 36/4/4 82/3/3 37/6/6
f 21/7/7 37/6/6 83/8/8 38/9/9
f 1/5/5 39/10/10 83/8/8 37/6/6
f 23/11/11 38/12/9 83/13/8 39/14/10
f 9/15/12 40/16/13 84/17/14 41/18/15
f 10/19/16 42/20/17 84/17/14 40/16/13
f 12/21/18 41/18/15 84/17/14 42/20/17
f 12/21/18 42/20/17 85/22/19 43/23/20
f 10/19/16 44/24/21 85/22/19 42/20/17
f 11/25/22 43/23/20 85/22/19 44/24/21
f 3/26/23 45/27/24 86/28/25 46/29/26
f 9/15/12 47/30/27 86/28/25 45/27/24
f 2/31/1 46/29/26 86/28/25 47/30/27
f 2/31/1 47/30/27 87/32/28 48/33/29
f 9/15/12 41/18/15 87/32/28 47/30/27
f 12/21/18 48/33/29 87/32/28 41/18/15
f 10/34/16 49/35/30 88/36/31 44/37/21
f 8/38/32 50/39/33 88/36/31 49/35/30
f 11/40/22 44/37/21 88/36/31 50/39/33
f 11/40/22 50/39/33 89/41/34 51/42/35
f 8/38/32 52/43/36 89/41/34 50/39/33
f 5/44/37 51/42/35 89/41/34 52/43/36
f 13/45/38 53/46/39 90/47/40 54/48/41
f 4/49/42 55/50/43 90/47/40 53/46/39
f 16/51/44 54/48/41 90/47/40 55/50/43
f 16/51/44 55/50/43 91/52/45 56/53/46
f 4/49/42 57/54/47 91/52/45 55/50/43
f 1/55/5 56/53/46 91/52/45 57/54/47
f 16/51/44 58/56/48 92/57/49 54/48/41
f 15/58/50 59/59/51 92/57/49 58/56/48
f 13/45/38 54/48/41 92/57/49 59/59/51
f 13/45/38 59/59/51 93/60/52 60/61/53
f 15/58/50 61/62/54 93/60/52 59/59/51
f 14/63/55 60/61/53 93/60/52 61/62/54
f 7/64/56 62/65/57 94/66/58 63/67/59
f 14/68/55 64/69/60 94/66/58 62/65/57
f 6/70/61 63/67/59 94/66/58 64/69/60
f 6/70/61 64/69/60 95/71/62 65/72/63
f 14/63/55 61/62/54 95/73/62 64/74/60
f 15/58/50 65/75/63 95/73/62 61/62/54
f 8/38/32 66/76/64 96/77/65 52/43/36
f 17/78/66 67/79/67 96/77/65 66/76/64
f 5/44/37 52/43/36 96/77/65 67/79/67
f 5/44/37 67/79/67 97/80/68 68/81/69
f 17/78/66 69/82/70 97/80/68 67/79/67
f 18/83/71 68/81/69 97/80/68 69/82/70
f 17/78/66 70/84/72 98/85/73 69/82/70
f 19/86/74 71/87/75 98/88/73 70/89/72
f 18/83/71 69/82/70 98/85/73 71/90/75
f 18/83/71 71/90/75 99/91/76 72/92/77
f 19/86/74 73/93/78 99/94/76 71/87/75
f 20/95/79 72/96/77 99/94/76 73/93/78
f 6/70/61 74/97/80 100/98/81 63/67/59
f 20/95/79 75/99/82 100/98/81 74/97/80
f 7/64/56 63/67/59 100/98/81 75/99/82
f 7/64/56 75/99/82 101/100/83 76/101/84
f 20/95/79 73/93/78 101/100/83 75/99/82
f 19/86/74 76/101/84 101/100/83 73/93/78
f 2/31/1 36/102/4 102/103/85 46/29/26
f 21/104/7 77/105/86 102/103/85 36/102/4
f 3/26/23 46/29/26 102/103/85 77/105/86
f 3/26/23 77/105/86 103/106/87 78/107/88
f 21/104/7 79/108/89 103/106/87 77/105/86
f 22/109/90 78/107/88 103/106/87 79/108/89
f 24/110/91 80/111/92 104/112/93 81/113/94
f 22/114/90 25/115/95 104/112/93 80/111/92
f 23/11/11 81/113/94 104/112/93 25/115/95
f 23/11/11 25/115/95 105/116/96 38/12/9
f 22/114/90 79/117/89 105/116/96 25/115/95
f 21/118/7 38/12/9 105/116/96 79/117/89
f 4/49/42 26/119/97 106/120/98 57/54/47
f 24/110/91 27/121/99 106/120/98 26/119/97
f 1/55/5 57/54/47 106/120/98 27/121/99
f 1/55/5 27/121/99 107/122/100 39/14/10
f 24/110/91 81/113/94 107/122/100 27/121/99
f 23/11/11 39/14/10 107/122/100 81/113/94
f 5/123/37 68/124/69 108/125/101 28/126/102
f 18/127/71 29/128/103 108/125/101 68/124/69
f 6/129/61 28/126/102 108/125/101 29/128/103
f 6/129/61 29/128/103 109/130/104 74/131/80
f 18/127/71 72/132/77 109/130/104 29/128/103
f 20/95/79 74/97/80 109/133/104 72/96/77
f 12/21/18 43/23/20 110/134/105 48/33/29
f 11/25/22 30/135/106 110/134/105 43/23/20
f 2/31/1 48/33/29 110/134/105 30/135/106
f 11/136/22 51/137/35 111/138/107 30/139/106
f 5/123/37 31/140/108 111/138/107 51/137/35
f 2/1/1 30/139/106 111/138/107 31/140/108
f 5/123/37 28/126/102 112/141/109 31/140/108
f 6/129/61 32/142/110 112/141/109 28/126/102
f 2/1/1 31/140/108 112/141/109 32/142/110
f 16/51/44 56/53/46 113/143/111 58/56/48
f 1/5/5 33/144/112 113/145/111 56/146/46
f 15/58/50 58/56/48 113/143/111 33/147/112
f 15/148/50 33/144/112 114/149/113 65/150/63
f 1/5/5 34/151/114 114/149/113 33/144/112
f 6/129/61 65/150/63 114/149/113 34/151/114
f 6/129/61 34/151/114 115/152/115 32/142/110
f 1/5/5 35/2/2 115/152/115 34/151/114
f 2/1/1 32/142/110 115/152/115 35/2/2
